<svg height="511pt" viewBox="0 -10 511.9999 511" width="511pt" xmlns="http://www.w3.org/2000/svg"><path d="m499.957031 11.242188c-7.511719-7.171876-17.367187-10.976563-27.835937-10.730469-10.429688.25-20.121094 4.53125-27.292969 12.054687l-8.066406 8.480469c-.003907.003906-.003907.003906-.003907.003906l-1.117187 1.175781-402.480469.054688c-18.285156 0-33.160156 14.898438-33.160156 33.210938v319.164062c0 18.300781 14.875 33.183594 33.160156 33.183594h142.003906l-6.582031 25.257812h-17.34375c-16.078125 0-29.152343 13.097656-29.152343 29.199219v11.890625c0 9.546875 7.761718 17.3125 17.300781 17.3125h231.941406c9.539063 0 17.300781-7.769531 17.300781-17.3125v-11.890625c0-16.101563-13.089844-29.199219-29.179687-29.199219h-17.316407l-6.582031-25.257812h131.21875c18.285157 0 33.160157-14.882813 33.160157-33.183594v-306.878906l1.351562-1.421875c14.792969-15.5625 14.199219-40.289063-1.324219-55.113281zm-44.183593 11.746093c4.382812-4.597656 10.320312-7.214843 16.714843-7.367187 6.386719-.144532 12.441407 2.171875 17.03125 6.550781 9.507813 9.085937 9.871094 24.230469.8125 33.765625l-2.847656 2.992188-34.570313-32.929688zm-39.664063 110.953125-93.769531 98.582032-34.5625-32.945313 154.71875-162.628906 34.554687 32.917969zm-289.898437 179.484375v-89.375c0-4.171875-3.382813-7.554687-7.558594-7.554687-4.171875 0-7.554688 3.382812-7.554688 7.554687v89.375h-58.875v-238.6875h333.460938l-31.085938 32.671875h-226.3125c-9.476562 0-17.1875 7.714844-17.1875 17.195313v65.21875c0 4.175781 3.382813 7.558593 7.558594 7.558593 4.171875 0 7.554688-3.382812 7.554688-7.558593v-65.21875c0-1.125.949218-2.078125 2.074218-2.078125h211.9375l-41.132812 43.234375h-136.578125c-4.175781 0-7.558594 3.382812-7.558594 7.558593 0 4.171876 3.382813 7.554688 7.558594 7.554688h122.195312l-13.085937 13.753906c-.625.660156-1.097656 1.398438-1.441406 2.1875 0-.003906-.003907-.003906-.003907-.003906l-7.394531 16.910156h-100.269531c-4.175781 0-7.558594 3.382813-7.558594 7.558594 0 4.171875 3.382813 7.554688 7.558594 7.554688h93.664062l-2.144531 4.902343c-.042969.085938-.074219.175781-.113281.265625l-6.652344 15.210938c-1.777344 4.109375-2.257813 8.441406-1.542969 12.46875h-83.210937c-4.175781 0-7.558594 3.382812-7.558594 7.558594 0 4.171874 3.382813 7.554687 7.558594 7.554687h96.546875c6.355468.367187 15.058594-.738281 16.277344-1.753906l50.613281-25.058594c0-.003906 0-.003906-.003907-.007813.789063-.390624 1.511719-.910156 2.128907-1.554687l45.441406-47.773437v112.777343zm142.039062-51.742187c-4.125 1.480468-6.34375-.199219-6.464844-.316406-1.125-1.101563-1.882812-3.296876-.65625-6.125l2.28125-5.226563 9.714844 9.257813s-3.59375 1.953124-4.875 2.410156zm19.292969-9.550782-17.6875-16.855468 9.84375-22.519532 29.867187 28.472657zm-254.382813-214.738281 388.101563-.054687-21.199219 22.285156h-349.945312c-7.171876 0-13.007813 5.847656-13.007813 13.039062v242.835938c0 7.191406 5.835937 13.039062 13.007813 13.039062h399.09375c7.171874 0 13.003906-5.847656 13.003906-13.039062v-85.359375c0-4.175781-3.382813-7.558594-7.554688-7.558594-4.175781 0-7.558594 3.382813-7.558594 7.558594v83.285156h-58.472656v-128.664062l38.433594-40.402344 20.039062-21.070313v73.664063c0 4.175781 3.382813 7.558594 7.558594 7.558594 4.171875 0 7.554688-3.382813 7.554688-7.558594v-89.554687l22.601562-23.761719v263.550781h-469.703125v-291.695312c0-9.976563 8.097657-18.097657 18.046875-18.097657zm340.359375 424.902344v11.890625c0 1.191406-1.003906 2.195312-2.191406 2.195312h-231.941406c-1.1875 0-2.191407-1.003906-2.191407-2.195312v-11.890625c0-7.765625 6.300782-14.085937 14.042969-14.085937h23.15625c.007813 0 .019531.003906.03125.003906.007813 0 .015625-.003906.023438-.003906h161.816406c.007813 0 .015625.003906.023437.003906.011719 0 .019532-.003906.03125-.003906h23.128907c7.757812.003906 14.070312 6.320312 14.070312 14.085937zm-47.003906-29.199219h-142.316406l6.585937-25.257812h129.144532zm140.253906-40.371094h-433.609375c-9.949218 0-18.046875-8.105468-18.046875-18.070312v-12.351562h469.703125v12.351562c0 9.964844-8.09375 18.070312-18.046875 18.070312zm0 0"/></svg>